# Blender v2.80 (sub 75) OBJ File: ''
# www.blender.org
mtllib Triangle.mtl
o Cube
v 1.000000 1.000000 1.000000
v 1.000000 -1.000000 1.000000
v -1.000000 1.000000 -1.000000
v -1.000000 -1.000000 -1.000000
v -1.000000 1.000000 1.000000
v -1.000000 -1.000000 1.000000
vt 0.375000 0.250000
vt 0.625000 0.250000
vt 0.625000 0.500000
vt 0.375000 0.500000
vt 0.625000 0.750000
vt 0.375000 0.750000
vn 0.0000 0.0000 1.0000
vn -1.0000 0.0000 0.0000
vn 0.0000 1.0000 0.0000
vn 0.0000 -1.0000 0.0000
vn 0.7071 0.0000 -0.7071
usemtl Material
s off
f 2/1/1 1/2/1 5/3/1 6/4/1
f 6/4/2 5/3/2 3/5/2 4/6/2
f 5/3/3 1/2/3 3/5/3
f 6/4/4 4/6/4 2/1/4
f 2/1/5 4/6/5 3/5/5 1/2/5
